<?xml version="1.0" encoding="UTF-8" standalone="no"?>
<!-- Generator: Adobe Illustrator 16.0.0, SVG Export Plug-In . SVG Version: 6.00 Build 0)  -->

<svg
   xmlns:dc="http://purl.org/dc/elements/1.1/"
   xmlns:cc="http://creativecommons.org/ns#"
   xmlns:rdf="http://www.w3.org/1999/02/22-rdf-syntax-ns#"
   xmlns:svg="http://www.w3.org/2000/svg"
   xmlns="http://www.w3.org/2000/svg"
   xmlns:sodipodi="http://sodipodi.sourceforge.net/DTD/sodipodi-0.dtd"
   xmlns:inkscape="http://www.inkscape.org/namespaces/inkscape"
   version="1.1"
   id="Layer_1"
   x="0px"
   y="0px"
   width="500px"
   height="500px"
   viewBox="0 0 500 500"
   enable-background="new 0 0 500 500"
   xml:space="preserve"
   inkscape:version="0.48.5 r10040"
   sodipodi:docname="logo.svg"
   inkscape:export-filename="/home/lucas/dev/regrados15/app/assets/images/logo.png"
   inkscape:export-xdpi="4.6962562"
   inkscape:export-ydpi="4.6962562"><metadata
     id="metadata3039"><rdf:RDF><cc:Work
         rdf:about=""><dc:format>image/svg+xml</dc:format><dc:type
           rdf:resource="http://purl.org/dc/dcmitype/StillImage" /><dc:title></dc:title></cc:Work></rdf:RDF></metadata><defs
     id="defs3037"><filter
       x="-0.25"
       width="1.5"
       y="-0.25"
       height="1.5"
       inkscape:menu="Non realistic 3D shaders"
       inkscape:menu-tooltip="Non realistic chrome shader with strong speculars"
       inkscape:label="Chrome"
       color-interpolation-filters="sRGB"
       id="filter3067"><feGaussianBlur
         result="result8"
         stdDeviation="4"
         id="feGaussianBlur3069" /><feComposite
         in="result8"
         operator="xor"
         result="result6"
         in2="result8"
         id="feComposite3071" /><feDisplacementMap
         result="result4"
         scale="80"
         yChannelSelector="A"
         xChannelSelector="A"
         in2="result6"
         in="result6"
         id="feDisplacementMap3073" /><feComposite
         k1="3"
         in="result8"
         operator="arithmetic"
         result="result2"
         in2="result4"
         id="feComposite3075" /><feComposite
         in2="result2"
         operator="in"
         in="result2"
         result="fbSourceGraphic"
         id="feComposite3077" /></filter></defs><sodipodi:namedview
     pagecolor="#ffffff"
     bordercolor="#666666"
     borderopacity="1"
     objecttolerance="10"
     gridtolerance="10"
     guidetolerance="10"
     inkscape:pageopacity="0"
     inkscape:pageshadow="2"
     inkscape:window-width="1366"
     inkscape:window-height="713"
     id="namedview3035"
     showgrid="false"
     inkscape:zoom="0.472"
     inkscape:cx="250"
     inkscape:cy="250"
     inkscape:window-x="0"
     inkscape:window-y="27"
     inkscape:window-maximized="1"
     inkscape:current-layer="Layer_1" /><path
     d="M356.877,160.16h-58.212c0-11.886-9.264-22.301-23.156-28.114l35.772-55.089c0.816,0.135,1.65,0.223,2.506,0.223  c8.424,0,15.252-6.829,15.252-15.252s-6.828-15.251-15.252-15.251s-15.252,6.828-15.252,15.251c0,3.111,0.937,6.001,2.535,8.414  l-37.711,58.076c-4.246-0.821-8.724-1.27-13.359-1.27s-9.113,0.449-13.359,1.27L168.82,23.974c1.47-2.293,2.333-5.012,2.333-7.938  c0-8.14-6.6-14.74-14.74-14.74s-14.74,6.6-14.74,14.74c0,8.141,6.6,14.74,14.74,14.74c0.749,0,1.48-0.074,2.2-0.182l65.878,101.452  c-13.893,5.813-23.156,16.228-23.156,28.114h-58.212c-56.217,0-101.789,45.572-101.789,101.789v111.967  c0,47.421,32.428,87.267,76.318,98.574c-0.461,8.288-0.689,26.213,5.964,26.213c5.884,0,15.631-14.023,21.269-23h210.23  c5.638,8.977,15.385,23,21.269,23c6.653,0,6.425-17.925,5.964-26.213c43.891-11.308,76.318-51.153,76.318-98.574V261.949  C458.666,205.732,413.094,160.16,356.877,160.16z M336.114,416.241H110.628c-11.046,0-20-8.954-20-20v-156.49  c0-11.046,8.954-20,20-20h225.486c11.046,0,20,8.954,20,20v156.49C356.114,407.287,347.16,416.241,336.114,416.241z   M398.666,380.716c-13.07,0-23.667-10.596-23.667-23.667s10.597-23.667,23.667-23.667s23.667,10.596,23.667,23.667  S411.736,380.716,398.666,380.716z M398.666,289.049c-13.07,0-23.667-10.596-23.667-23.667s10.597-23.667,23.667-23.667  s23.667,10.596,23.667,23.667S411.736,289.049,398.666,289.049z"
     id="path3033" /><flowRoot
     xml:space="preserve"
     id="flowRoot3041"
     style="font-size:40px;font-style:italic;font-variant:normal;font-weight:bold;font-stretch:normal;line-height:125%;letter-spacing:0px;word-spacing:0px;fill:#ff0000;fill-opacity:1;stroke:none;filter:url(#filter3067);font-family:FreeMono;-inkscape-font-specification:FreeMono Bold Italic"
     transform="matrix(3.4780323,0,0,3.6510303,4.9402115,-749.89301)"><flowRegion
       id="flowRegion3043"><rect
         id="rect3045"
         width="440.67798"
         height="230.93221"
         x="14.830508"
         y="241.52542"
         style="font-style:italic;font-variant:normal;font-weight:bold;font-stretch:normal;fill:#ff0000;font-family:FreeMono;-inkscape-font-specification:FreeMono Bold Italic" /></flowRegion><flowPara
       id="flowPara3047"
       style="font-size:72px;font-style:italic;font-variant:normal;font-weight:bold;font-stretch:normal;fill:#ff0000;font-family:FreeMono;-inkscape-font-specification:FreeMono Bold Italic">15</flowPara></flowRoot></svg>